<svg width="356" height="67" viewBox="0 0 356 67" fill="none" xmlns="http://www.w3.org/2000/svg">
<path d="M353 65.6686L321 65.6077L289.061 33.5468L321.122 1.60779L353.122 1.66876L321.061 33.6077L353 65.6686Z" stroke="#A3A3A3" stroke-width="1.66159"/>
<path d="M296 65.56L264 65.499L232.061 33.4381L264.122 1.49916L296.122 1.56013L264.061 33.4991L296 65.56Z" stroke="#A3A3A3" stroke-width="1.66159"/>
<path d="M238 65.4495L206 65.3886L174.061 33.3276L206.122 1.38867L238.122 1.44964L206.061 33.3886L238 65.4495Z" stroke="#A3A3A3" stroke-width="1.66159"/>
<path d="M181.001 65.3409L149.001 65.2799L117.062 33.219L149.123 1.28006L181.123 1.34103L149.062 33.28L181.001 65.3409Z" stroke="#A3A3A3" stroke-width="1.66159"/>
<path d="M126.001 65.2361L94.001 65.1751L62.0621 33.1142L94.123 1.17526L126.123 1.23623L94.062 33.1752L126.001 65.2361Z" stroke="#A3A3A3" stroke-width="1.66159"/>
<path d="M66 65.1218L34.0001 65.0609L2.0611 32.9999L34.122 1.06097L66.122 1.12194L34.061 33.0609L66 65.1218Z" stroke="#A3A3A3" stroke-width="1.66159"/>
</svg>
