<svg width="1635" height="131" viewBox="0 0 1635 131" fill="none" xmlns="http://www.w3.org/2000/svg">
<mask id="path-1-outside-1_2021_125" maskUnits="userSpaceOnUse" x="-0.217773" y="-0.052124" width="1636" height="131" fill="black">
<rect fill="white" x="-0.217773" y="-0.052124" width="1636" height="131"/>
<path d="M1.43635 65.3991C1.43635 53.1485 3.96893 42.2525 9.03408 32.7112C14.217 23.0521 21.5203 15.5721 30.9438 10.2714C40.3674 4.85287 51.2044 2.1436 63.455 2.1436C79.0039 2.1436 92.079 6.3253 102.681 14.6887C113.282 22.9343 120.114 34.1836 123.177 48.4367H85.8948C83.6568 43.725 80.5352 40.1323 76.5302 37.6586C72.643 35.1849 68.1079 33.9481 62.925 33.9481C54.9149 33.9481 48.4952 36.834 43.6656 42.6059C38.9538 48.2601 36.5979 55.8578 36.5979 65.3991C36.5979 75.0583 38.9538 82.7738 43.6656 88.5457C48.4952 94.1998 54.9149 97.0269 62.925 97.0269C68.1079 97.0269 72.643 95.79 76.5302 93.3164C80.5352 90.8427 83.6568 87.25 85.8948 82.5382H123.177C120.114 96.7913 113.282 108.1 102.681 116.463C92.079 124.709 79.0039 128.831 63.455 128.831C51.2044 128.831 40.3674 126.181 30.9438 120.88C21.5203 115.462 14.217 107.982 9.03408 98.4404C3.96893 88.7813 1.43635 77.7675 1.43635 65.3991ZM199.298 129.185C187.636 129.185 176.917 126.475 167.14 121.057C157.363 115.521 149.588 107.923 143.816 98.2637C138.162 88.4868 135.335 77.473 135.335 65.2224C135.335 52.9718 138.162 42.017 143.816 32.3578C149.588 22.5809 157.363 14.9832 167.14 9.56464C176.917 4.1461 187.636 1.43684 199.298 1.43684C211.077 1.43684 221.796 4.1461 231.455 9.56464C241.232 14.9832 248.948 22.5809 254.602 32.3578C260.256 42.017 263.083 52.9718 263.083 65.2224C263.083 77.473 260.256 88.4868 254.602 98.2637C248.948 107.923 241.232 115.521 231.455 121.057C221.678 126.475 210.959 129.185 199.298 129.185ZM199.298 97.0269C208.132 97.0269 215.082 94.1409 220.147 88.369C225.33 82.5971 227.922 74.8816 227.922 65.2224C227.922 55.3277 225.33 47.5533 220.147 41.8992C215.082 36.1272 208.132 33.2413 199.298 33.2413C190.345 33.2413 183.336 36.1272 178.271 41.8992C173.206 47.5533 170.674 55.3277 170.674 65.2224C170.674 74.9994 173.206 82.7738 178.271 88.5457C183.336 94.1998 190.345 97.0269 199.298 97.0269ZM341.73 127.948L316.993 82.0081H313.283V127.948H278.651V3.38044H333.249C343.261 3.38044 351.743 5.14735 358.693 8.68118C365.642 12.0972 370.884 16.8679 374.418 22.9932C377.952 29.0007 379.719 35.7739 379.719 43.3127C379.719 51.7939 377.363 59.2738 372.651 65.7525C368.057 72.1134 361.284 76.6485 352.332 79.3577L380.426 127.948H341.73ZM313.283 58.3315H330.422C335.134 58.3315 338.668 57.2124 341.023 54.9743C343.379 52.7362 344.557 49.4969 344.557 45.2563C344.557 41.2513 343.32 38.1297 340.847 35.8917C338.491 33.5358 335.016 32.3578 330.422 32.3578H313.283V58.3315ZM458.547 127.948L433.81 82.0081H430.099V127.948H395.468V3.38044H450.065C460.078 3.38044 468.559 5.14735 475.509 8.68118C482.459 12.0972 487.701 16.8679 491.235 22.9932C494.768 29.0007 496.535 35.7739 496.535 43.3127C496.535 51.7939 494.179 59.2738 489.468 65.7525C484.874 72.1134 478.1 76.6485 469.148 79.3577L497.242 127.948H458.547ZM430.099 58.3315H447.238C451.95 58.3315 455.484 57.2124 457.84 54.9743C460.196 52.7362 461.374 49.4969 461.374 45.2563C461.374 41.2513 460.137 38.1297 457.663 35.8917C455.307 33.5358 451.832 32.3578 447.238 32.3578H430.099V58.3315ZM546.916 3.38044V127.948H512.284V3.38044H546.916ZM615.934 3.38044C629.01 3.38044 640.436 6.03081 650.213 11.3316C660.107 16.5145 667.705 23.8177 673.006 33.2413C678.307 42.6648 680.957 53.443 680.957 65.5758C680.957 77.5908 678.248 88.3101 672.829 97.7336C667.528 107.157 659.931 114.578 650.036 119.997C640.259 125.298 628.892 127.948 615.934 127.948H566.638V3.38044H615.934ZM613.284 97.3803C623.414 97.3803 631.366 94.6121 637.137 89.0758C642.909 83.5394 645.795 75.7061 645.795 65.5758C645.795 55.3277 642.909 47.4355 637.137 41.8992C631.366 36.245 623.414 33.418 613.284 33.418H601.269V97.3803H613.284ZM775.372 107.628H731.199L724.485 127.948H688.087L733.496 3.38044H773.429L818.662 127.948H782.087L775.372 107.628ZM766.714 81.1247L753.286 40.839L740.034 81.1247H766.714ZM976.393 107.628H932.22L925.506 127.948H889.108L934.517 3.38044H974.45L1019.68 127.948H983.108L976.393 107.628ZM967.735 81.1247L954.307 40.839L941.055 81.1247H967.735ZM1124.79 3.38044V30.9443H1091.58V127.948H1056.94V30.9443H1024.08V3.38044H1124.79ZM1172.24 3.38044V127.948H1137.61V3.38044H1172.24ZM1285.78 3.38044V30.9443H1252.56V127.948H1217.93V30.9443H1185.07V3.38044H1285.78ZM1332.52 3.38044V75.6472C1332.52 82.3615 1334.05 87.5444 1337.11 91.1961C1340.29 94.8477 1345.07 96.6735 1351.43 96.6735C1357.79 96.6735 1362.56 94.8477 1365.74 91.1961C1369.04 87.4266 1370.69 82.2437 1370.69 75.6472V3.38044H1405.32V75.6472C1405.32 87.0733 1402.9 96.8502 1398.07 104.978C1393.24 112.988 1386.65 119.054 1378.28 123.177C1370.04 127.182 1360.85 129.185 1350.72 129.185C1340.59 129.185 1331.52 127.182 1323.51 123.177C1315.62 119.054 1309.37 112.988 1304.78 104.978C1300.3 96.968 1298.07 87.1911 1298.07 75.6472V3.38044H1332.52ZM1473.68 3.38044C1486.76 3.38044 1498.18 6.03081 1507.96 11.3316C1517.85 16.5145 1525.45 23.8177 1530.75 33.2413C1536.05 42.6648 1538.7 53.443 1538.7 65.5758C1538.7 77.5908 1535.99 88.3101 1530.58 97.7336C1525.28 107.157 1517.68 114.578 1507.78 119.997C1498.01 125.298 1486.64 127.948 1473.68 127.948H1424.38V3.38044H1473.68ZM1471.03 97.3803C1481.16 97.3803 1489.11 94.6121 1494.88 89.0758C1500.66 83.5394 1503.54 75.7061 1503.54 65.5758C1503.54 55.3277 1500.66 47.4355 1494.88 41.8992C1489.11 36.245 1481.16 33.418 1471.03 33.418H1459.02V97.3803H1471.03ZM1588.95 31.121V51.4405H1628.7V77.7675H1588.95V100.207H1634V127.948H1554.31V3.38044H1634V31.121H1588.95Z"/>
</mask>
<path d="M9.03408 32.7112L8.15291 32.2384L8.15082 32.2423L9.03408 32.7112ZM30.9438 10.2714L31.4341 11.143L31.4423 11.1383L30.9438 10.2714ZM102.681 14.6887L102.061 15.4738L102.067 15.478L102.681 14.6887ZM123.177 48.4367V49.4367H124.414L124.154 48.2267L123.177 48.4367ZM85.8948 48.4367L84.9916 48.8658L85.2628 49.4367H85.8948V48.4367ZM76.5302 37.6586L75.9933 38.5023L76.0047 38.5094L76.5302 37.6586ZM43.6656 42.6059L42.8987 41.9642L42.8974 41.9657L43.6656 42.6059ZM43.6656 88.5457L42.8909 89.1781L42.898 89.1867L42.9052 89.1952L43.6656 88.5457ZM76.5302 93.3164L76.0047 92.4655L75.9933 92.4727L76.5302 93.3164ZM85.8948 82.5382V81.5382H85.2628L84.9916 82.1091L85.8948 82.5382ZM123.177 82.5382L124.154 82.7483L124.414 81.5382H123.177V82.5382ZM102.681 116.463L103.294 117.252L103.3 117.248L102.681 116.463ZM30.9438 120.88L30.4453 121.747L30.4536 121.752L30.9438 120.88ZM9.03408 98.4404L8.14846 98.9048L8.15186 98.9113L8.15536 98.9177L9.03408 98.4404ZM1.43635 65.3991H2.43635C2.43635 53.2898 4.9386 42.5586 9.91734 33.1801L9.03408 32.7112L8.15082 32.2423C2.99925 41.9464 0.436351 53.0072 0.436351 65.3991H1.43635ZM9.03408 32.7112L9.91524 33.184C15.0097 23.6898 22.1785 16.3493 31.4341 11.143L30.9438 10.2714L30.4536 9.39983C20.8621 14.795 13.4243 22.4144 8.15292 32.2384L9.03408 32.7112ZM30.9438 10.2714L31.4423 11.1383C40.6957 5.81762 51.3567 3.1436 63.455 3.1436V2.1436V1.1436C51.0521 1.1436 40.039 3.88813 30.4453 9.4045L30.9438 10.2714ZM63.455 2.1436V3.1436C78.8148 3.1436 91.6622 7.2702 102.061 15.4738L102.681 14.6887L103.3 13.9036C92.4958 5.3804 79.1929 1.1436 63.455 1.1436V2.1436ZM102.681 14.6887L102.067 15.478C112.466 23.5666 119.181 34.6025 122.199 48.6468L123.177 48.4367L124.154 48.2267C121.047 33.7648 114.098 22.302 103.294 13.8993L102.681 14.6887ZM123.177 48.4367V47.4367H85.8948V48.4367V49.4367H123.177V48.4367ZM85.8948 48.4367L86.7981 48.0077C84.4866 43.1414 81.2421 39.3935 77.0557 36.8078L76.5302 37.6586L76.0047 38.5094C79.8283 40.871 82.8269 44.3086 84.9916 48.8658L85.8948 48.4367ZM76.5302 37.6586L77.0671 36.8149C73 34.2267 68.2736 32.9481 62.925 32.9481V33.9481V34.9481C67.9422 34.9481 72.286 36.143 75.9933 38.5022L76.5302 37.6586ZM62.925 33.9481V32.9481C54.6406 32.9481 47.9318 35.949 42.8987 41.9642L43.6656 42.6059L44.4325 43.2477C49.0586 37.719 55.1893 34.9481 62.925 34.9481V33.9481ZM43.6656 42.6059L42.8974 41.9657C37.9962 47.8472 35.5979 55.6943 35.5979 65.3991H36.5979H37.5979C37.5979 56.0213 39.9114 48.673 44.4338 43.2461L43.6656 42.6059ZM36.5979 65.3991H35.5979C35.5979 75.2195 37.995 83.1805 42.8909 89.1781L43.6656 88.5457L44.4403 87.9133C39.9127 82.3671 37.5979 74.897 37.5979 65.3991H36.5979ZM43.6656 88.5457L42.9052 89.1952C47.9408 95.0905 54.648 98.0269 62.925 98.0269V97.0269V96.0269C55.1819 96.0269 49.0495 93.3091 44.426 87.8962L43.6656 88.5457ZM62.925 97.0269V98.0269C68.2736 98.0269 73 96.7482 77.0671 94.16L76.5302 93.3164L75.9933 92.4727C72.286 94.8319 67.9422 96.0269 62.925 96.0269V97.0269ZM76.5302 93.3164L77.0557 94.1672C81.2421 91.5815 84.4866 87.8336 86.7981 82.9672L85.8948 82.5382L84.9916 82.1091C82.8269 86.6664 79.8283 90.1039 76.0047 92.4656L76.5302 93.3164ZM85.8948 82.5382V83.5382H123.177V82.5382V81.5382H85.8948V82.5382ZM123.177 82.5382L122.199 82.3281C119.181 96.3731 112.465 107.47 102.061 115.678L102.681 116.463L103.3 117.248C114.099 108.729 121.047 97.2094 124.154 82.7483L123.177 82.5382ZM102.681 116.463L102.067 115.674C91.6675 123.762 78.8181 127.831 63.455 127.831V128.831V129.831C79.1896 129.831 92.4906 125.655 103.294 117.252L102.681 116.463ZM63.455 128.831V127.831C51.3529 127.831 40.6889 125.214 31.4341 120.009L30.9438 120.88L30.4536 121.752C40.0458 127.147 51.0559 129.831 63.455 129.831V128.831ZM30.9438 120.88L31.4423 120.013C22.1789 114.687 15.0074 107.342 9.9128 97.9631L9.03408 98.4404L8.15536 98.9177C13.4267 108.622 20.8617 116.237 30.4453 121.747L30.9438 120.88ZM9.03408 98.4404L9.9197 97.976C4.93923 88.4784 2.43635 77.6277 2.43635 65.3991H1.43635H0.436351C0.436351 77.9074 2.99862 89.0842 8.14846 98.9048L9.03408 98.4404ZM167.14 121.057L166.647 121.927L166.655 121.932L167.14 121.057ZM143.816 98.2637L142.951 98.7643L142.954 98.7705L142.958 98.7767L143.816 98.2637ZM143.816 32.3578L142.955 31.8494L142.953 31.8527L143.816 32.3578ZM231.455 9.56464L230.966 10.4368L230.971 10.4393L231.455 9.56464ZM254.602 32.3578L253.736 32.8585L253.739 32.863L254.602 32.3578ZM254.602 98.2637L255.465 98.7689L255.468 98.7643L254.602 98.2637ZM231.455 121.057L231.94 121.932L231.948 121.927L231.455 121.057ZM220.147 88.369L219.403 87.7008L219.396 87.7094L220.147 88.369ZM220.147 41.8992L219.396 42.5588L219.403 42.5669L219.41 42.5749L220.147 41.8992ZM178.271 41.8992L179.016 42.5665L179.023 42.5588L178.271 41.8992ZM178.271 88.5457L177.52 89.2053L177.526 89.2129L178.271 88.5457ZM199.298 129.185V128.185C187.798 128.185 177.247 125.515 167.624 120.182L167.14 121.057L166.655 121.932C176.587 127.436 187.474 130.185 199.298 130.185V129.185ZM167.14 121.057L167.632 120.187C158.007 114.736 150.358 107.261 144.675 97.7508L143.816 98.2637L142.958 98.7767C148.819 108.584 156.719 116.305 166.647 121.927L167.14 121.057ZM143.816 98.2637L144.682 97.7631C139.123 88.1511 136.335 77.3126 136.335 65.2224H135.335H134.335C134.335 77.6335 137.201 88.8225 142.951 98.7643L143.816 98.2637ZM135.335 65.2224H136.335C136.335 53.1321 139.123 42.3546 144.679 32.863L143.816 32.3578L142.953 31.8527C137.201 41.6793 134.335 52.8115 134.335 65.2224H135.335ZM143.816 32.3578L144.678 32.8662C150.36 23.2402 158.006 15.77 167.624 10.4393L167.14 9.56464L166.655 8.68999C156.72 14.1963 148.816 21.9216 142.955 31.8494L143.816 32.3578ZM167.14 9.56464L167.624 10.4393C177.247 5.10659 187.798 2.43684 199.298 2.43684V1.43684V0.436836C187.474 0.436836 176.587 3.18562 166.655 8.68999L167.14 9.56464ZM199.298 1.43684V2.43684C210.917 2.43684 221.466 5.10742 230.966 10.4368L231.455 9.56464L231.945 8.6925C222.127 3.18478 211.237 0.436836 199.298 0.436836V1.43684ZM231.455 9.56464L230.971 10.4393C240.587 15.769 248.172 23.2367 253.736 32.8585L254.602 32.3578L255.468 31.8572C249.724 21.9251 241.877 14.1973 231.94 8.68999L231.455 9.56464ZM254.602 32.3578L253.739 32.863C259.295 42.3546 262.083 53.1321 262.083 65.2224H263.083H264.083C264.083 52.8115 261.217 41.6793 255.465 31.8527L254.602 32.3578ZM263.083 65.2224H262.083C262.083 77.3126 259.295 88.1511 253.736 97.7631L254.602 98.2637L255.468 98.7643C261.217 88.8225 264.083 77.6335 264.083 65.2224H263.083ZM254.602 98.2637L253.739 97.7585C248.174 107.265 240.587 114.737 230.963 120.187L231.455 121.057L231.948 121.927C241.878 116.304 249.721 108.581 255.465 98.7689L254.602 98.2637ZM231.455 121.057L230.971 120.182C221.349 125.515 210.797 128.185 199.298 128.185V129.185V130.185C211.121 130.185 222.008 127.436 231.94 121.932L231.455 121.057ZM199.298 97.0269V98.0269C208.372 98.0269 215.614 95.0505 220.899 89.0286L220.147 88.369L219.396 87.7094C214.55 93.2314 207.892 96.0269 199.298 96.0269V97.0269ZM220.147 88.369L220.891 89.0371C226.277 83.0397 228.922 75.0653 228.922 65.2224H227.922H226.922C226.922 74.6978 224.384 82.1544 219.403 87.7009L220.147 88.369ZM227.922 65.2224H228.922C228.922 55.1524 226.281 47.1106 220.884 41.2234L220.147 41.8992L219.41 42.5749C224.379 47.996 226.922 55.5031 226.922 65.2224H227.922ZM220.147 41.8992L220.899 41.2396C215.614 35.2177 208.372 32.2413 199.298 32.2413V33.2413V34.2413C207.892 34.2413 214.55 37.0368 219.396 42.5588L220.147 41.8992ZM199.298 33.2413V32.2413C190.11 32.2413 182.807 35.2146 177.52 41.2396L178.271 41.8992L179.023 42.5588C183.866 37.0399 190.58 34.2413 199.298 34.2413V33.2413ZM178.271 41.8992L177.526 41.2319C172.252 47.1194 169.674 55.158 169.674 65.2224H170.674H171.674C171.674 55.4974 174.16 47.9872 179.016 42.5664L178.271 41.8992ZM170.674 65.2224H169.674C169.674 75.1738 172.255 83.2054 177.52 89.2053L178.271 88.5457L179.023 87.8861C174.158 82.3421 171.674 74.8249 171.674 65.2224H170.674ZM178.271 88.5457L177.526 89.2129C182.816 95.1171 190.117 98.0269 199.298 98.0269V97.0269V96.0269C190.574 96.0269 183.857 93.2825 179.016 87.8784L178.271 88.5457ZM341.73 127.948L340.85 128.422L341.133 128.948H341.73V127.948ZM316.993 82.0081L317.874 81.534L317.591 81.0081H316.993V82.0081ZM313.283 82.0081V81.0081H312.283V82.0081H313.283ZM313.283 127.948V128.948H314.283V127.948H313.283ZM278.651 127.948H277.651V128.948H278.651V127.948ZM278.651 3.38044V2.38044H277.651V3.38044H278.651ZM358.693 8.68118L358.239 9.57265L358.251 9.57864L358.693 8.68118ZM374.418 22.9932L373.552 23.4929L373.556 23.5002L374.418 22.9932ZM372.651 65.7525L371.842 65.1643L371.84 65.167L372.651 65.7525ZM352.332 79.3577L352.042 78.4006L350.834 78.7661L351.466 79.8583L352.332 79.3577ZM380.426 127.948V128.948H382.159L381.291 127.447L380.426 127.948ZM313.283 58.3315H312.283V59.3315H313.283V58.3315ZM341.023 54.9743L340.335 54.2493L341.023 54.9743ZM340.847 35.8917L340.14 36.5988L340.157 36.6164L340.176 36.6332L340.847 35.8917ZM313.283 32.3578V31.3578H312.283V32.3578H313.283ZM341.73 127.948L342.611 127.474L317.874 81.534L316.993 82.0081L316.113 82.4822L340.85 128.422L341.73 127.948ZM316.993 82.0081V81.0081H313.283V82.0081V83.0081H316.993V82.0081ZM313.283 82.0081H312.283V127.948H313.283H314.283V82.0081H313.283ZM313.283 127.948V126.948H278.651V127.948V128.948H313.283V127.948ZM278.651 127.948H279.651V3.38044H278.651H277.651V127.948H278.651ZM278.651 3.38044V4.38044H333.249V3.38044V2.38044H278.651V3.38044ZM333.249 3.38044V4.38044C343.147 4.38044 351.464 6.1275 358.239 9.57257L358.693 8.68118L359.146 7.7898C352.021 4.1672 343.376 2.38044 333.249 2.38044V3.38044ZM358.693 8.68118L358.251 9.57864C365.041 12.9159 370.127 17.5557 373.552 23.4929L374.418 22.9932L375.284 22.4935C371.642 16.1801 366.244 11.2786 359.134 7.78374L358.693 8.68118ZM374.418 22.9932L373.556 23.5002C376.992 29.3416 378.719 35.9371 378.719 43.3127H379.719H380.719C380.719 35.6106 378.912 28.6598 375.28 22.4862L374.418 22.9932ZM379.719 43.3127H378.719C378.719 51.5957 376.422 58.8669 371.842 65.1643L372.651 65.7525L373.46 66.3407C378.304 59.6807 380.719 51.992 380.719 43.3127H379.719ZM372.651 65.7525L371.84 65.167C367.398 71.318 360.826 75.7422 352.042 78.4006L352.332 79.3577L352.621 80.3149C361.742 77.5547 368.716 72.9088 373.462 66.338L372.651 65.7525ZM352.332 79.3577L351.466 79.8583L379.56 128.448L380.426 127.948L381.291 127.447L353.197 78.8572L352.332 79.3577ZM380.426 127.948V126.948H341.73V127.948V128.948H380.426V127.948ZM313.283 58.3315V59.3315H330.422V58.3315V57.3315H313.283V58.3315ZM330.422 58.3315V59.3315C335.275 59.3315 339.101 58.1797 341.712 55.6993L341.023 54.9743L340.335 54.2493C338.234 56.2452 334.992 57.3315 330.422 57.3315V58.3315ZM341.023 54.9743L341.712 55.6993C344.322 53.2195 345.557 49.6833 345.557 45.2563H344.557H343.557C343.557 49.3105 342.436 52.253 340.335 54.2493L341.023 54.9743ZM344.557 45.2563H345.557C345.557 41.0304 344.243 37.6155 341.518 35.1501L340.847 35.8917L340.176 36.6332C342.398 38.6439 343.557 41.4722 343.557 45.2563H344.557ZM340.847 35.8917L341.554 35.1845C338.949 32.5793 335.179 31.3578 330.422 31.3578V32.3578V33.3578C334.853 33.3578 338.033 34.4922 340.14 36.5988L340.847 35.8917ZM330.422 32.3578V31.3578H313.283V32.3578V33.3578H330.422V32.3578ZM313.283 32.3578H312.283V58.3315H313.283H314.283V32.3578H313.283ZM458.547 127.948L457.666 128.422L457.949 128.948H458.547V127.948ZM433.81 82.0081L434.69 81.534L434.407 81.0081H433.81V82.0081ZM430.099 82.0081V81.0081H429.099V82.0081H430.099ZM430.099 127.948V128.948H431.099V127.948H430.099ZM395.468 127.948H394.468V128.948H395.468V127.948ZM395.468 3.38044V2.38044H394.468V3.38044H395.468ZM475.509 8.68118L475.056 9.57265L475.068 9.57864L475.509 8.68118ZM491.235 22.9932L490.368 23.4929L490.373 23.5002L491.235 22.9932ZM489.468 65.7525L488.659 65.1643L488.657 65.167L489.468 65.7525ZM469.148 79.3577L468.858 78.4006L467.651 78.7661L468.282 79.8583L469.148 79.3577ZM497.242 127.948V128.948H498.975L498.108 127.447L497.242 127.948ZM430.099 58.3315H429.099V59.3315H430.099V58.3315ZM457.84 54.9743L457.151 54.2493L457.84 54.9743ZM457.663 35.8917L456.956 36.5988L456.974 36.6164L456.992 36.6332L457.663 35.8917ZM430.099 32.3578V31.3578H429.099V32.3578H430.099ZM458.547 127.948L459.427 127.474L434.69 81.534L433.81 82.0081L432.929 82.4822L457.666 128.422L458.547 127.948ZM433.81 82.0081V81.0081H430.099V82.0081V83.0081H433.81V82.0081ZM430.099 82.0081H429.099V127.948H430.099H431.099V82.0081H430.099ZM430.099 127.948V126.948H395.468V127.948V128.948H430.099V127.948ZM395.468 127.948H396.468V3.38044H395.468H394.468V127.948H395.468ZM395.468 3.38044V4.38044H450.065V3.38044V2.38044H395.468V3.38044ZM450.065 3.38044V4.38044C459.964 4.38044 468.28 6.1275 475.056 9.57257L475.509 8.68118L475.962 7.7898C468.838 4.1672 460.192 2.38044 450.065 2.38044V3.38044ZM475.509 8.68118L475.068 9.57864C481.857 12.9159 486.943 17.5557 490.368 23.4929L491.235 22.9932L492.101 22.4935C488.458 16.1801 483.06 11.2786 475.95 7.78374L475.509 8.68118ZM491.235 22.9932L490.373 23.5002C493.809 29.3416 495.535 35.9371 495.535 43.3127H496.535H497.535C497.535 35.6106 495.728 28.6598 492.096 22.4862L491.235 22.9932ZM496.535 43.3127H495.535C495.535 51.5957 493.239 58.8669 488.659 65.1643L489.468 65.7525L490.276 66.3407C495.12 59.6807 497.535 51.992 497.535 43.3127H496.535ZM489.468 65.7525L488.657 65.167C484.215 71.318 477.643 75.7422 468.858 78.4006L469.148 79.3577L469.438 80.3149C478.558 77.5547 485.533 72.9088 490.278 66.338L489.468 65.7525ZM469.148 79.3577L468.282 79.8583L496.376 128.448L497.242 127.948L498.108 127.447L470.014 78.8572L469.148 79.3577ZM497.242 127.948V126.948H458.547V127.948V128.948H497.242V127.948ZM430.099 58.3315V59.3315H447.238V58.3315V57.3315H430.099V58.3315ZM447.238 58.3315V59.3315C452.092 59.3315 455.918 58.1797 458.529 55.6993L457.84 54.9743L457.151 54.2493C455.05 56.2452 451.808 57.3315 447.238 57.3315V58.3315ZM457.84 54.9743L458.529 55.6993C461.139 53.2195 462.374 49.6833 462.374 45.2563H461.374H460.374C460.374 49.3105 459.253 52.253 457.151 54.2493L457.84 54.9743ZM461.374 45.2563H462.374C462.374 41.0304 461.059 37.6155 458.334 35.1501L457.663 35.8917L456.992 36.6332C459.215 38.6439 460.374 41.4722 460.374 45.2563H461.374ZM457.663 35.8917L458.37 35.1845C455.765 32.5793 451.995 31.3578 447.238 31.3578V32.3578V33.3578C451.67 33.3578 454.85 34.4922 456.956 36.5988L457.663 35.8917ZM447.238 32.3578V31.3578H430.099V32.3578V33.3578H447.238V32.3578ZM430.099 32.3578H429.099V58.3315H430.099H431.099V32.3578H430.099ZM546.916 3.38044H547.916V2.38044H546.916V3.38044ZM546.916 127.948V128.948H547.916V127.948H546.916ZM512.284 127.948H511.284V128.948H512.284V127.948ZM512.284 3.38044V2.38044H511.284V3.38044H512.284ZM546.916 3.38044H545.916V127.948H546.916H547.916V3.38044H546.916ZM546.916 127.948V126.948H512.284V127.948V128.948H546.916V127.948ZM512.284 127.948H513.284V3.38044H512.284H511.284V127.948H512.284ZM512.284 3.38044V4.38044H546.916V3.38044V2.38044H512.284V3.38044ZM650.213 11.3316L649.736 12.2107L649.742 12.2141L649.749 12.2174L650.213 11.3316ZM673.006 33.2413L673.877 32.751L673.006 33.2413ZM672.829 97.7336L671.962 97.2352L671.958 97.2434L672.829 97.7336ZM650.036 119.997L650.513 120.876L650.516 120.874L650.036 119.997ZM566.638 127.948H565.638V128.948H566.638V127.948ZM566.638 3.38044V2.38044H565.638V3.38044H566.638ZM637.137 89.0758L637.83 89.7975L637.137 89.0758ZM637.137 41.8992L636.438 42.6136L636.445 42.6208L637.137 41.8992ZM601.269 33.418V32.418H600.269V33.418H601.269ZM601.269 97.3803H600.269V98.3803H601.269V97.3803ZM615.934 3.38044V4.38044C628.872 4.38044 640.129 7.00214 649.736 12.2107L650.213 11.3316L650.689 10.4524C640.742 5.05948 629.147 2.38044 615.934 2.38044V3.38044ZM650.213 11.3316L649.749 12.2174C659.478 17.3138 666.932 24.4823 672.134 33.7316L673.006 33.2413L673.877 32.751C668.479 23.1532 660.737 15.7152 650.677 10.4457L650.213 11.3316ZM673.006 33.2413L672.134 33.7316C677.341 42.9878 679.957 53.5934 679.957 65.5758H680.957H681.957C681.957 53.2926 679.272 42.3418 673.877 32.751L673.006 33.2413ZM680.957 65.5758H679.957C679.957 77.4348 677.285 87.9789 671.962 97.2352L672.829 97.7336L673.696 98.2321C679.211 88.6413 681.957 77.7469 681.957 65.5758H680.957ZM672.829 97.7336L671.958 97.2434C666.753 106.497 659.294 113.787 649.556 119.12L650.036 119.997L650.516 120.874C660.568 115.37 668.304 107.818 673.701 98.2239L672.829 97.7336ZM650.036 119.997L649.559 119.118C639.951 124.327 628.753 126.948 615.934 126.948V127.948V128.948C629.031 128.948 640.567 126.268 650.513 120.876L650.036 119.997ZM615.934 127.948V126.948H566.638V127.948V128.948H615.934V127.948ZM566.638 127.948H567.638V3.38044H566.638H565.638V127.948H566.638ZM566.638 3.38044V4.38044H615.934V3.38044V2.38044H566.638V3.38044ZM613.284 97.3803V98.3803C623.601 98.3803 631.825 95.5566 637.83 89.7975L637.137 89.0758L636.445 88.3541C630.906 93.6676 623.228 96.3803 613.284 96.3803V97.3803ZM637.137 89.0758L637.83 89.7975C643.848 84.0252 646.795 75.9017 646.795 65.5758H645.795H644.795C644.795 75.5106 641.971 83.0537 636.445 88.3541L637.137 89.0758ZM645.795 65.5758H646.795C646.795 55.1361 643.85 46.9519 637.83 41.1775L637.137 41.8992L636.445 42.6208C641.969 47.9191 644.795 55.5193 644.795 65.5758H645.795ZM637.137 41.8992L637.837 41.1848C631.834 35.3039 623.606 32.418 613.284 32.418V33.418V34.418C623.223 34.418 630.897 37.1862 636.438 42.6135L637.137 41.8992ZM613.284 33.418V32.418H601.269V33.418V34.418H613.284V33.418ZM601.269 33.418H600.269V97.3803H601.269H602.269V33.418H601.269ZM601.269 97.3803V98.3803H613.284V97.3803V96.3803H601.269V97.3803ZM775.372 107.628L776.322 107.315L776.095 106.628H775.372V107.628ZM731.199 107.628V106.628H730.477L730.25 107.315L731.199 107.628ZM724.485 127.948V128.948H725.208L725.435 128.262L724.485 127.948ZM688.087 127.948L687.147 127.605L686.658 128.948H688.087V127.948ZM733.496 3.38044V2.38044H732.797L732.557 3.03795L733.496 3.38044ZM773.429 3.38044L774.369 3.03912L774.129 2.38044H773.429V3.38044ZM818.662 127.948V128.948H820.089L819.602 127.607L818.662 127.948ZM782.086 127.948L781.137 128.262L781.364 128.948H782.086V127.948ZM766.714 81.1246V82.1246H768.102L767.663 80.8084L766.714 81.1246ZM753.286 40.839L754.234 40.5228L753.28 37.6579L752.336 40.5265L753.286 40.839ZM740.034 81.1246L739.084 80.8122L738.652 82.1246H740.034V81.1246ZM775.372 107.628V106.628H731.199V107.628V108.628H775.372V107.628ZM731.199 107.628L730.25 107.315L723.536 127.634L724.485 127.948L725.435 128.262L732.149 107.942L731.199 107.628ZM724.485 127.948V126.948H688.087V127.948V128.948H724.485V127.948ZM688.087 127.948L689.026 128.29L734.436 3.72293L733.496 3.38044L732.557 3.03795L687.147 127.605L688.087 127.948ZM733.496 3.38044V4.38044H773.429V3.38044V2.38044H733.496V3.38044ZM773.429 3.38044L772.489 3.72176L817.722 128.289L818.662 127.948L819.602 127.607L774.369 3.03912L773.429 3.38044ZM818.662 127.948V126.948H782.086V127.948V128.948H818.662V127.948ZM782.086 127.948L783.036 127.634L776.322 107.315L775.372 107.628L774.423 107.942L781.137 128.262L782.086 127.948ZM766.714 81.1246L767.663 80.8084L754.234 40.5228L753.286 40.839L752.337 41.1552L765.766 81.4409L766.714 81.1246ZM753.286 40.839L752.336 40.5265L739.084 80.8122L740.034 81.1246L740.984 81.4371L754.236 41.1515L753.286 40.839ZM740.034 81.1246V82.1246H766.714V81.1246V80.1246H740.034V81.1246ZM976.393 107.628L977.343 107.315L977.116 106.628H976.393V107.628ZM932.22 107.628V106.628H931.498L931.271 107.315L932.22 107.628ZM925.506 127.948V128.948H926.229L926.456 128.262L925.506 127.948ZM889.108 127.948L888.168 127.605L887.679 128.948H889.108V127.948ZM934.517 3.38044V2.38044H933.818L933.578 3.03795L934.517 3.38044ZM974.45 3.38044L975.39 3.03912L975.15 2.38044H974.45V3.38044ZM1019.68 127.948V128.948H1021.11L1020.62 127.607L1019.68 127.948ZM983.107 127.948L982.158 128.262L982.385 128.948H983.107V127.948ZM967.735 81.1246V82.1246H969.123L968.684 80.8084L967.735 81.1246ZM954.307 40.839L955.255 40.5228L954.301 37.6579L953.357 40.5265L954.307 40.839ZM941.055 81.1246L940.105 80.8122L939.673 82.1246H941.055V81.1246ZM976.393 107.628V106.628H932.22V107.628V108.628H976.393V107.628ZM932.22 107.628L931.271 107.315L924.557 127.634L925.506 127.948L926.456 128.262L933.17 107.942L932.22 107.628ZM925.506 127.948V126.948H889.108V127.948V128.948H925.506V127.948ZM889.108 127.948L890.047 128.29L935.457 3.72293L934.517 3.38044L933.578 3.03795L888.168 127.605L889.108 127.948ZM934.517 3.38044V4.38044H974.45V3.38044V2.38044H934.517V3.38044ZM974.45 3.38044L973.51 3.72176L1018.74 128.289L1019.68 127.948L1020.62 127.607L975.39 3.03912L974.45 3.38044ZM1019.68 127.948V126.948H983.107V127.948V128.948H1019.68V127.948ZM983.107 127.948L984.057 127.634L977.343 107.315L976.393 107.628L975.444 107.942L982.158 128.262L983.107 127.948ZM967.735 81.1246L968.684 80.8084L955.255 40.5228L954.307 40.839L953.358 41.1552L966.787 81.4409L967.735 81.1246ZM954.307 40.839L953.357 40.5265L940.105 80.8122L941.055 81.1246L942.005 81.4371L955.257 41.1515L954.307 40.839ZM941.055 81.1246V82.1246H967.735V81.1246V80.1246H941.055V81.1246ZM1124.79 3.38044H1125.79V2.38044H1124.79V3.38044ZM1124.79 30.9443V31.9443H1125.79V30.9443H1124.79ZM1091.58 30.9443V29.9443H1090.58V30.9443H1091.58ZM1091.58 127.948V128.948H1092.58V127.948H1091.58ZM1056.94 127.948H1055.94V128.948H1056.94V127.948ZM1056.94 30.9443H1057.94V29.9443H1056.94V30.9443ZM1024.08 30.9443H1023.08V31.9443H1024.08V30.9443ZM1024.08 3.38044V2.38044H1023.08V3.38044H1024.08ZM1124.79 3.38044H1123.79V30.9443H1124.79H1125.79V3.38044H1124.79ZM1124.79 30.9443V29.9443H1091.58V30.9443V31.9443H1124.79V30.9443ZM1091.58 30.9443H1090.58V127.948H1091.58H1092.58V30.9443H1091.58ZM1091.58 127.948V126.948H1056.94V127.948V128.948H1091.58V127.948ZM1056.94 127.948H1057.94V30.9443H1056.94H1055.94V127.948H1056.94ZM1056.94 30.9443V29.9443H1024.08V30.9443V31.9443H1056.94V30.9443ZM1024.08 30.9443H1025.08V3.38044H1024.08H1023.08V30.9443H1024.08ZM1024.08 3.38044V4.38044H1124.79V3.38044V2.38044H1024.08V3.38044ZM1172.24 3.38044H1173.24V2.38044H1172.24V3.38044ZM1172.24 127.948V128.948H1173.24V127.948H1172.24ZM1137.61 127.948H1136.61V128.948H1137.61V127.948ZM1137.61 3.38044V2.38044H1136.61V3.38044H1137.61ZM1172.24 3.38044H1171.24V127.948H1172.24H1173.24V3.38044H1172.24ZM1172.24 127.948V126.948H1137.61V127.948V128.948H1172.24V127.948ZM1137.61 127.948H1138.61V3.38044H1137.61H1136.61V127.948H1137.61ZM1137.61 3.38044V4.38044H1172.24V3.38044V2.38044H1137.61V3.38044ZM1285.78 3.38044H1286.78V2.38044H1285.78V3.38044ZM1285.78 30.9443V31.9443H1286.78V30.9443H1285.78ZM1252.56 30.9443V29.9443H1251.56V30.9443H1252.56ZM1252.56 127.948V128.948H1253.56V127.948H1252.56ZM1217.93 127.948H1216.93V128.948H1217.93V127.948ZM1217.93 30.9443H1218.93V29.9443H1217.93V30.9443ZM1185.07 30.9443H1184.07V31.9443H1185.07V30.9443ZM1185.07 3.38044V2.38044H1184.07V3.38044H1185.07ZM1285.78 3.38044H1284.78V30.9443H1285.78H1286.78V3.38044H1285.78ZM1285.78 30.9443V29.9443H1252.56V30.9443V31.9443H1285.78V30.9443ZM1252.56 30.9443H1251.56V127.948H1252.56H1253.56V30.9443H1252.56ZM1252.56 127.948V126.948H1217.93V127.948V128.948H1252.56V127.948ZM1217.93 127.948H1218.93V30.9443H1217.93H1216.93V127.948H1217.93ZM1217.93 30.9443V29.9443H1185.07V30.9443V31.9443H1217.93V30.9443ZM1185.07 30.9443H1186.07V3.38044H1185.07H1184.07V30.9443H1185.07ZM1185.07 3.38044V4.38044H1285.78V3.38044V2.38044H1185.07V3.38044ZM1332.52 3.38044H1333.52V2.38044H1332.52V3.38044ZM1337.11 91.1961L1336.35 91.8387L1336.35 91.8458L1336.36 91.8528L1337.11 91.1961ZM1365.74 91.1961L1364.99 90.5376L1364.98 90.5393L1365.74 91.1961ZM1370.69 3.38044V2.38044H1369.69V3.38044H1370.69ZM1405.32 3.38044H1406.32V2.38044H1405.32V3.38044ZM1398.07 104.978L1398.93 105.494L1398.93 105.489L1398.07 104.978ZM1378.28 123.177L1378.72 124.077L1378.73 124.074L1378.28 123.177ZM1323.51 123.177L1323.05 124.064L1323.05 124.068L1323.06 124.072L1323.51 123.177ZM1304.78 104.978L1303.91 105.466L1303.91 105.476L1304.78 104.978ZM1298.07 3.38044V2.38044H1297.07V3.38044H1298.07ZM1332.52 3.38044H1331.52V75.6472H1332.52H1333.52V3.38044H1332.52ZM1332.52 75.6472H1331.52C1331.52 82.5017 1333.08 87.9457 1336.35 91.8387L1337.11 91.1961L1337.88 90.5535C1335.02 87.1432 1333.52 82.2213 1333.52 75.6472H1332.52ZM1337.11 91.1961L1336.36 91.8528C1339.79 95.7859 1344.87 97.6735 1351.43 97.6735V96.6735V95.6735C1345.26 95.6735 1340.8 93.9094 1337.87 90.5393L1337.11 91.1961ZM1351.43 96.6735V97.6735C1357.98 97.6735 1363.07 95.7859 1366.49 91.8528L1365.74 91.1961L1364.98 90.5393C1362.05 93.9094 1357.59 95.6735 1351.43 95.6735V96.6735ZM1365.74 91.1961L1366.49 91.8546C1369.99 87.8516 1371.69 82.4078 1371.69 75.6472H1370.69H1369.69C1369.69 82.0796 1368.08 87.0017 1364.99 90.5376L1365.74 91.1961ZM1370.69 75.6472H1371.69V3.38044H1370.69H1369.69V75.6472H1370.69ZM1370.69 3.38044V4.38044H1405.32V3.38044V2.38044H1370.69V3.38044ZM1405.32 3.38044H1404.32V75.6472H1405.32H1406.32V3.38044H1405.32ZM1405.32 75.6472H1404.32C1404.32 86.931 1401.93 96.5233 1397.21 104.467L1398.07 104.978L1398.93 105.489C1403.87 97.1771 1406.32 87.2155 1406.32 75.6472H1405.32ZM1398.07 104.978L1397.22 104.462C1392.49 112.308 1386.03 118.242 1377.84 122.28L1378.28 123.177L1378.73 124.074C1387.26 119.866 1394 113.668 1398.93 105.494L1398.07 104.978ZM1378.28 123.177L1377.85 122.278C1369.75 126.21 1360.71 128.185 1350.72 128.185V129.185V130.185C1360.99 130.185 1370.32 128.155 1378.72 124.077L1378.28 123.177ZM1350.72 129.185V128.185C1340.72 128.185 1331.81 126.21 1323.96 122.283L1323.51 123.177L1323.06 124.072C1331.23 128.155 1340.45 130.185 1350.72 130.185V129.185ZM1323.51 123.177L1323.97 122.291C1316.26 118.26 1310.15 112.331 1305.65 104.48L1304.78 104.978L1303.91 105.476C1308.6 113.645 1314.98 119.849 1323.05 124.064L1323.51 123.177ZM1304.78 104.978L1305.65 104.49C1301.28 96.663 1299.07 87.0636 1299.07 75.6472H1298.07H1297.07C1297.07 87.3185 1299.33 97.273 1303.91 105.466L1304.78 104.978ZM1298.07 75.6472H1299.07V3.38044H1298.07H1297.07V75.6472H1298.07ZM1298.07 3.38044V4.38044H1332.52V3.38044V2.38044H1298.07V3.38044ZM1507.96 11.3316L1507.48 12.2107L1507.49 12.2141L1507.5 12.2174L1507.96 11.3316ZM1530.75 33.2413L1531.62 32.751L1530.75 33.2413ZM1530.58 97.7336L1529.71 97.2352L1529.7 97.2434L1530.58 97.7336ZM1507.78 119.997L1508.26 120.876L1508.26 120.874L1507.78 119.997ZM1424.38 127.948H1423.38V128.948H1424.38V127.948ZM1424.38 3.38044V2.38044H1423.38V3.38044H1424.38ZM1494.88 89.0758L1495.58 89.7975L1494.88 89.0758ZM1494.88 41.8992L1494.18 42.6136L1494.19 42.6208L1494.88 41.8992ZM1459.02 33.418V32.418H1458.02V33.418H1459.02ZM1459.02 97.3803H1458.02V98.3803H1459.02V97.3803ZM1473.68 3.38044V4.38044C1486.62 4.38044 1497.88 7.00214 1507.48 12.2107L1507.96 11.3316L1508.44 10.4524C1498.49 5.05948 1486.89 2.38044 1473.68 2.38044V3.38044ZM1507.96 11.3316L1507.5 12.2174C1517.23 17.3138 1524.68 24.4823 1529.88 33.7316L1530.75 33.2413L1531.62 32.751C1526.23 23.1532 1518.48 15.7152 1508.42 10.4457L1507.96 11.3316ZM1530.75 33.2413L1529.88 33.7316C1535.09 42.9878 1537.7 53.5934 1537.7 65.5758H1538.7H1539.7C1539.7 53.2926 1537.02 42.3418 1531.62 32.751L1530.75 33.2413ZM1538.7 65.5758H1537.7C1537.7 77.4348 1535.03 87.9789 1529.71 97.2352L1530.58 97.7336L1531.44 98.2321C1536.96 88.6413 1539.7 77.7469 1539.7 65.5758H1538.7ZM1530.58 97.7336L1529.7 97.2434C1524.5 106.497 1517.04 113.787 1507.3 119.12L1507.78 119.997L1508.26 120.874C1518.31 115.37 1526.05 107.818 1531.45 98.2239L1530.58 97.7336ZM1507.78 119.997L1507.31 119.118C1497.7 124.327 1486.5 126.948 1473.68 126.948V127.948V128.948C1486.78 128.948 1498.31 126.268 1508.26 120.876L1507.78 119.997ZM1473.68 127.948V126.948H1424.38V127.948V128.948H1473.68V127.948ZM1424.38 127.948H1425.38V3.38044H1424.38H1423.38V127.948H1424.38ZM1424.38 3.38044V4.38044H1473.68V3.38044V2.38044H1424.38V3.38044ZM1471.03 97.3803V98.3803C1481.35 98.3803 1489.57 95.5566 1495.58 89.7975L1494.88 89.0758L1494.19 88.3541C1488.65 93.6676 1480.98 96.3803 1471.03 96.3803V97.3803ZM1494.88 89.0758L1495.58 89.7975C1501.59 84.0252 1504.54 75.9017 1504.54 65.5758H1503.54H1502.54C1502.54 75.5106 1499.72 83.0537 1494.19 88.3541L1494.88 89.0758ZM1503.54 65.5758H1504.54C1504.54 55.1361 1501.6 46.9519 1495.58 41.1775L1494.88 41.8992L1494.19 42.6208C1499.72 47.9191 1502.54 55.5193 1502.54 65.5758H1503.54ZM1494.88 41.8992L1495.58 41.1848C1489.58 35.3039 1481.35 32.418 1471.03 32.418V33.418V34.418C1480.97 34.418 1488.64 37.1862 1494.18 42.6135L1494.88 41.8992ZM1471.03 33.418V32.418H1459.02V33.418V34.418H1471.03V33.418ZM1459.02 33.418H1458.02V97.3803H1459.02H1460.02V33.418H1459.02ZM1459.02 97.3803V98.3803H1471.03V97.3803V96.3803H1459.02V97.3803ZM1588.95 31.121V30.121H1587.95V31.121H1588.95ZM1588.95 51.4405H1587.95V52.4405H1588.95V51.4405ZM1628.7 51.4405H1629.7V50.4405H1628.7V51.4405ZM1628.7 77.7675V78.7675H1629.7V77.7675H1628.7ZM1588.95 77.7675V76.7675H1587.95V77.7675H1588.95ZM1588.95 100.207H1587.95V101.207H1588.95V100.207ZM1634 100.207H1635V99.2073H1634V100.207ZM1634 127.948V128.948H1635V127.948H1634ZM1554.31 127.948H1553.31V128.948H1554.31V127.948ZM1554.31 3.38044V2.38044H1553.31V3.38044H1554.31ZM1634 3.38044H1635V2.38044H1634V3.38044ZM1634 31.121V32.121H1635V31.121H1634ZM1588.95 31.121H1587.95V51.4405H1588.95H1589.95V31.121H1588.95ZM1588.95 51.4405V52.4405H1628.7V51.4405V50.4405H1588.95V51.4405ZM1628.7 51.4405H1627.7V77.7675H1628.7H1629.7V51.4405H1628.7ZM1628.7 77.7675V76.7675H1588.95V77.7675V78.7675H1628.7V77.7675ZM1588.95 77.7675H1587.95V100.207H1588.95H1589.95V77.7675H1588.95ZM1588.95 100.207V101.207H1634V100.207V99.2073H1588.95V100.207ZM1634 100.207H1633V127.948H1634H1635V100.207H1634ZM1634 127.948V126.948H1554.31V127.948V128.948H1634V127.948ZM1554.31 127.948H1555.31V3.38044H1554.31H1553.31V127.948H1554.31ZM1554.31 3.38044V4.38044H1634V3.38044V2.38044H1554.31V3.38044ZM1634 3.38044H1633V31.121H1634H1635V3.38044H1634ZM1634 31.121V30.121H1588.95V31.121V32.121H1634V31.121Z" fill="#9A9A9A" mask="url(#path-1-outside-1_2021_125)"/>
</svg>
