<svg width="746" height="780" viewBox="0 0 746 780" fill="none" xmlns="http://www.w3.org/2000/svg">
<path d="M389.706 12.7246C199.959 12.7249 46.1377 166.546 46.1377 356.294C46.1378 442.345 77.7571 520.978 130.027 581.26L137.791 590.214L62.5898 665.415L53.5918 674.412L44.5938 665.415L35.5967 656.416L-150.004 842.017L-96.0166 896.004L89.584 710.403L80.585 701.406L71.5879 692.408L80.585 683.41L155.786 608.209L164.74 615.973C225.022 668.243 303.655 699.862 389.706 699.862C579.454 699.862 733.275 546.041 733.275 356.294C733.275 166.546 579.454 12.7246 389.706 12.7246ZM389.706 38.1738C565.398 38.1738 707.826 180.602 707.826 356.294C707.826 531.986 565.398 674.413 389.706 674.413C214.014 674.413 71.5872 531.986 71.5869 356.294C71.5869 180.602 214.014 38.1741 389.706 38.1738Z" stroke="#1A1A1A" stroke-width="25.4495"/>
</svg>
