<svg width="440" height="60" viewBox="0 0 440 60" fill="none" xmlns="http://www.w3.org/2000/svg">
<path d="M1 59.2162H28.974L62.9965 1H34.2664L1 58.6191" stroke="#BABABA" stroke-width="1.20969"/>
<path d="M47.876 59.2162H75.85L109.872 1H81.1424L47.876 58.6191" stroke="#BABABA" stroke-width="1.20969"/>
<path d="M94.751 59.2162H122.725L156.747 1H128.017L94.751 58.6191" stroke="#BABABA" stroke-width="1.20969"/>
<path d="M141.626 59.2162H169.6L203.622 1H174.892L141.626 58.6191" stroke="#BABABA" stroke-width="1.20969"/>
<path d="M188.502 59.2162H216.476L250.498 1H221.768L188.502 58.6191" stroke="#BABABA" stroke-width="1.20969"/>
<path d="M235.377 59.2162H263.351L297.373 1H268.643L235.377 58.6191" stroke="#BABABA" stroke-width="1.20969"/>
<path d="M282.252 59.2162H310.226L344.248 1H315.518L282.252 58.6191" stroke="#BABABA" stroke-width="1.20969"/>
<path d="M329.128 59.2162H357.102L391.124 1H362.394L329.128 58.6191" stroke="#BABABA" stroke-width="1.20969"/>
<path d="M376.004 59.2162H403.978L438 1H409.27L376.004 58.6191" stroke="#BABABA" stroke-width="1.20969"/>
</svg>
